<svg width="17" height="12" viewBox="0 0 17 12" fill="none" xmlns="http://www.w3.org/2000/svg">
<path fill-rule="evenodd" clip-rule="evenodd" d="M0.5 0C0.223858 0 0 0.223858 0 0.5V11.5C0 11.7761 0.223858 12 0.5 12C0.776142 12 1 11.7761 1 11.5V0.5C1 0.223858 0.776142 0 0.5 0ZM14.3805 5.5128H4.22461C3.95524 5.5128 3.73741 5.73063 3.73741 6C3.73741 6.26937 3.95524 6.4872 4.22461 6.4872H14.3805L9.81294 11.0538C9.59705 11.2697 9.59705 11.6217 9.81294 11.8376C9.91796 11.9426 10.057 12 10.2058 12C10.3536 12 10.4927 11.9426 10.5977 11.8376L16.128 6.30729V6.29951C16.2087 6.22464 16.2622 6.11961 16.2622 6C16.2622 5.88136 16.2107 5.77634 16.13 5.70243V5.69465L10.5977 0.162399C10.4927 0.0573744 10.3536 0 10.2058 0C10.057 0 9.91796 0.0573744 9.81294 0.162399C9.59705 0.378282 9.59705 0.730308 9.81294 0.946191L14.3805 5.5128Z" fill="black"/>
</svg>
